<svg xmlns="http://www.w3.org/2000/svg">
<defs>
<linearGradient id="cg" x1="0" y1="0" x2="1" y2="1"><stop offset="0" stop-color="#fff4bd"/><stop offset=".48" stop-color="#f3c45f"/><stop offset="1" stop-color="#b36b16"/></linearGradient>
<linearGradient id="cp" x1="0" y1="0" x2="1" y2="1"><stop offset="0" stop-color="#e8d8ff"/><stop offset=".5" stop-color="#a873f0"/><stop offset="1" stop-color="#5a2795"/></linearGradient>
<linearGradient id="cs" x1="0" y1="0" x2="1" y2="1"><stop offset="0" stop-color="#ffffff"/><stop offset=".55" stop-color="#d7e1f2"/><stop offset="1" stop-color="#8796b4"/></linearGradient>
</defs>
<symbol id="task-quest-compact" viewBox="0 0 32 32"><path d="M9 7.5 24 22.5M23 7.5 8 22.5" fill="none" stroke="url(#cs)" stroke-width="1.55" stroke-linecap="round"/><path d="m7.4 6.4 3 .7-2.3 2.3ZM24.6 6.4l-3 .7 2.3 2.3Z" fill="url(#cg)"/><circle cx="16" cy="16" r="2.6" fill="url(#cp)" stroke="#f4c760" stroke-width=".85"/></symbol>
<symbol id="task-laundry-compact" viewBox="0 0 32 32"><rect x="9" y="6.5" width="14" height="19" rx="2.3" fill="none" stroke="url(#cg)" stroke-width="1.35"/><circle cx="16" cy="17.2" r="5.1" fill="none" stroke="url(#cs)" stroke-width="1.3"/><path d="M12.6 17.4c1.2-1.25 2.4-1.7 3.8-1.3 1 .3 1.8.9 2.4 1.8" fill="none" stroke="url(#cp)" stroke-width="1.25" stroke-linecap="round"/><circle cx="12.2" cy="9.8" r=".9" fill="#f5cf72"/></symbol>
<symbol id="task-cleaning-compact" viewBox="0 0 32 32"><path d="M12 7.5 19.3 25" fill="none" stroke="url(#cg)" stroke-width="1.6" stroke-linecap="round"/><path d="m10.5 22.7 9.7-4.1 1.6 3.7-9.8 3.1Z" fill="url(#cp)" stroke="#f2c35d" stroke-width=".75"/><path d="M22.5 8v3m-1.5-1.5h3" stroke="#f8e7a8" stroke-width="1.05" stroke-linecap="round"/></symbol>
<symbol id="task-kitchen-compact" viewBox="0 0 32 32"><path d="M11 7v7m-3-7v4.6a3 3 0 0 0 6 0V7M11 14v11" fill="none" stroke="url(#cg)" stroke-width="1.35" stroke-linecap="round"/><path d="M21 7v18M21 7c2.2 1.8 2.3 6.2 0 8.2" fill="none" stroke="url(#cs)" stroke-width="1.35" stroke-linecap="round"/><circle cx="16" cy="16" r="1.8" fill="url(#cp)"/></symbol>
<symbol id="task-groceries-compact" viewBox="0 0 32 32"><path d="M8 13h16l-1.8 11H9.8Z" fill="none" stroke="url(#cg)" stroke-width="1.4" stroke-linejoin="round"/><path d="M12 13a4 4 0 0 1 8 0" fill="none" stroke="url(#cs)" stroke-width="1.25"/><path d="M13 18h6m-3-3v6" stroke="url(#cp)" stroke-width="1.25" stroke-linecap="round"/></symbol>
<symbol id="task-pantry-compact" viewBox="0 0 32 32"><rect x="10" y="7" width="12" height="18" rx="1.6" fill="none" stroke="url(#cg)" stroke-width="1.35"/><path d="M12 12h8M12 18h8" stroke="url(#cs)" stroke-width="1.1" stroke-linecap="round"/><circle cx="16" cy="15" r="1" fill="url(#cp)"/></symbol>
<symbol id="task-admin-compact" viewBox="0 0 32 32"><path d="M10 7h12v18H11.5A3.5 3.5 0 0 1 8 21.5v-12A2.5 2.5 0 0 1 10.5 7Z" fill="none" stroke="url(#cg)" stroke-width="1.3"/><path d="M12 11h6.5M12 15h6M12 19h4.5" stroke="url(#cs)" stroke-width="1.15" stroke-linecap="round"/><circle cx="21" cy="8.2" r="1" fill="url(#cp)"/></symbol>
<symbol id="task-family-compact" viewBox="0 0 32 32"><path d="m8 15 8-7 8 7" fill="none" stroke="url(#cg)" stroke-width="1.45" stroke-linecap="round" stroke-linejoin="round"/><path d="M10.5 14v10h11V14" fill="none" stroke="url(#cs)" stroke-width="1.2"/><path d="M16 21.8s-3.5-1.8-3.5-4.1a1.9 1.9 0 0 1 3.5-1.1 1.9 1.9 0 0 1 3.5 1.1c0 2.3-3.5 4.1-3.5 4.1Z" fill="url(#cp)"/></symbol>
<symbol id="task-garden-compact" viewBox="0 0 32 32"><path d="M16 25V13" stroke="url(#cg)" stroke-width="1.45" stroke-linecap="round"/><path d="M16 16c-4.6 0-6.4-2.8-6.4-6.4 4.4 0 6.4 2.6 6.4 6.4ZM16 19c4.6 0 6.4-2.8 6.4-6.4-4.4 0-6.4 2.6-6.4 6.4Z" fill="url(#cp)" stroke="#e8d2ff" stroke-width=".55"/><path d="M12.5 25h7" stroke="url(#cs)" stroke-width="1.1" stroke-linecap="round"/></symbol>
<symbol id="task-travel-compact" viewBox="0 0 32 32"><circle cx="16" cy="16" r="8.7" fill="none" stroke="url(#cg)" stroke-width="1.3"/><path d="m20.7 11.3-2.7 6.7-6.7 2.7L14 14Z" fill="url(#cp)" stroke="#e9dbff" stroke-width=".65"/><circle cx="16" cy="16" r="1.25" fill="#f7d77d"/></symbol>
<symbol id="task-dropoff-compact" viewBox="0 0 32 32"><path d="M8 20h14l2 3H8Z" fill="none" stroke="url(#cg)" stroke-width="1.3"/><path d="m10 20 2.4-5.5h6.2L22 20" fill="none" stroke="url(#cs)" stroke-width="1.2"/><circle cx="11.5" cy="23" r="1.5" fill="url(#cp)"/><circle cx="20.5" cy="23" r="1.5" fill="url(#cp)"/><path d="M20.5 10h5m-2-2 2 2-2 2" stroke="#f6cf72" stroke-width="1.15" stroke-linecap="round" stroke-linejoin="round"/></symbol>
<symbol id="task-pickup-compact" viewBox="0 0 32 32"><path d="M8 20h14l2 3H8Z" fill="none" stroke="url(#cg)" stroke-width="1.3"/><path d="m10 20 2.4-5.5h6.2L22 20" fill="none" stroke="url(#cs)" stroke-width="1.2"/><circle cx="11.5" cy="23" r="1.5" fill="url(#cp)"/><circle cx="20.5" cy="23" r="1.5" fill="url(#cp)"/><path d="M25.5 10h-5m2-2-2 2 2 2" stroke="#f6cf72" stroke-width="1.15" stroke-linecap="round" stroke-linejoin="round"/></symbol>
</svg>