<svg xmlns="http://www.w3.org/2000/svg" width="1200" height="800" viewBox="0 0 1200 800" preserveAspectRatio="xMidYMid slice"><rect x="0" y="0" width="1200" height="800" fill="#eef5eb"/><circle cx="980" cy="130" r="260" fill="#cfe7c5"/><circle cx="160" cy="720" r="320" fill="#dfead9"/><rect x="130" y="300" width="720" height="320" rx="34" fill="#fff" opacity=".82"/><rect x="180" y="360" width="250" height="28" rx="14" fill="#2f6323" opacity=".28"/><rect x="180" y="420" width="420" height="22" rx="11" fill="#2f6323" opacity=".18"/><rect x="180" y="470" width="340" height="22" rx="11" fill="#2f6323" opacity=".14"/><circle cx="760" cy="398" r="84" fill="#3f7f2f" opacity=".22"/><path d="M704 398l38 38 78-92" stroke="#2f6323" stroke-width="34" fill="none" stroke-linecap="round" stroke-linejoin="round"/><path d="M880 230c72 32 115 103 100 164-82-10-138-64-150-147 18-11 34-16 50-17Z" fill="#5fae45" opacity=".55"/><path d="M945 235c-82 56-126 126-148 222" stroke="#2f6323" stroke-width="12" opacity=".35"/></svg>